<svg id="Capa_1" enable-background="new 0 0 512 512" height="512" viewBox="0 0 512 512" width="512" xmlns="http://www.w3.org/2000/svg"><g><g><g><g><g><g><g><path d="m211.196 473.001h-84.361l23.008-100.225h38.346z" fill="#d8e2f1"/><path d="m157.165 440.992h-39.388c-9.523 0-17.243 7.72-17.243 17.243 0 9.523 7.72 17.243 17.243 17.243h56.631v-17.243c0-9.523-7.72-17.243-17.243-17.243z" fill="#f4fbff"/><path d="m220.255 440.992h-65.15c9.523 0 17.243 7.72 17.243 17.243v17.243h47.907c9.523 0 17.243-7.72 17.243-17.243 0-9.523-7.72-17.243-17.243-17.243z" fill="#e4f6ff"/><path d="m277.064 369.064v-186.974c0-14.102-11.432-25.534-25.534-25.534h-225.996c-14.102 0-25.534 11.432-25.534 25.534v186.974c0 14.102 11.432 25.534 25.534 25.534h225.996c14.102-.001 25.534-11.432 25.534-25.534z" fill="#cbe2ff"/><path d="m312.498 156.556h-65.174c14.102 0 25.534 11.432 25.534 25.534v186.974c0 14.102-11.432 25.534-25.534 25.534h65.174c14.102 0 25.534-11.432 25.534-25.534v-186.974c-.001-14.102-11.433-25.534-25.534-25.534z" fill="#bed8fb"/><path d="m277.064 369.064v-17.394h-277.064v17.393c0 14.102 11.432 25.534 25.534 25.534h225.996c14.102 0 25.534-11.431 25.534-25.533z" fill="#f4fbff"/><path d="m338.031 369.064v-17.394h-65.174v17.393c0 14.102-11.432 25.534-25.534 25.534h65.174c14.102 0 25.534-11.431 25.534-25.533z" fill="#e4f6ff"/></g></g></g><g><g><g><g><g><g><g><g><g><g><g><g><g><g><g><path d="m437.215 358.649c-4.268 0-7.726-3.459-7.726-7.726v-23.181c0-4.363-3.547-7.912-7.908-7.912h-35.884c-4.361 0-7.908 3.549-7.908 7.912v23.181c0 4.267-3.459 7.726-7.726 7.726s-7.726-3.459-7.726-7.726v-23.181c0-12.883 10.48-23.365 23.361-23.365h35.884c12.881 0 23.361 10.481 23.361 23.365v23.181c-.002 4.267-3.461 7.726-7.728 7.726z" fill="#d8e2f1"/></g></g><g><path d="m439.335 456.703v-55.99h-98.301c-18.788 0-34.019-15.231-34.019-34.019v90.009c0 10.369 8.405 18.774 18.774 18.774h94.772c10.369 0 18.774-8.405 18.774-18.774z" fill="#ead3c4"/><path d="m481.486 345.294h-65.174c10.369 0 18.774 8.405 18.774 18.774v92.635c0 10.369-8.405 18.774-18.774 18.774h65.174c10.369 0 18.774-8.405 18.774-18.774v-92.635c0-10.369-8.406-18.774-18.774-18.774z" fill="#ddb7a0"/><path d="m439.335 364.068c0-10.369-8.405-18.774-18.774-18.774h-94.772c-10.368 0-18.773 8.405-18.774 18.773v8.036c0 18.788 15.231 34.019 34.019 34.019h98.301z" fill="#ddb7a0"/><path d="m500.26 372.103v-8.036c-.001-10.368-8.406-18.773-18.774-18.773h-65.173-.001c10.369 0 18.774 8.405 18.774 18.774v42.054h31.154c18.789 0 34.02-15.231 34.02-34.019z" fill="#cc9675"/></g></g></g></g></g></g></g></g></g></g></g><g><g><path d="m353.14 423.372c-4.268 0-7.726-3.459-7.726-7.726v-18.801c0-4.267 3.459-7.726 7.726-7.726s7.726 3.459 7.726 7.726v18.801c.001 4.267-3.458 7.726-7.726 7.726z" fill="#e4f6ff"/></g><g><path d="m454.134 423.372c-4.268 0-7.726-3.459-7.726-7.726v-18.801c0-4.267 3.459-7.726 7.726-7.726 4.268 0 7.726 3.459 7.726 7.726v18.801c.001 4.267-3.458 7.726-7.726 7.726z" fill="#e4f6ff"/></g></g></g></g></g></g><path d="m433.594 471.769h-416.113c-9.655 0-17.481 7.826-17.481 17.481 0 9.654 7.826 17.481 17.481 17.481h429.345l4.249-4.034v-13.447c0-9.655-7.826-17.481-17.481-17.481z" fill="#efc984"/><path d="m494.519 471.769h-65.174c9.654 0 17.481 7.826 17.481 17.481v17.481h47.693c9.654 0 17.481-7.826 17.481-17.481 0-9.655-7.826-17.481-17.481-17.481z" fill="#eabc6b"/></g><g><path d="m449.628 84.304c0-31.711-18.134-59.162-44.585-72.621l-4.665.622c-27.444 12.391-46.448 39.931-46.448 71.999 0 32.061 19.013 59.604 46.448 71.999l6.488-.335c25.458-13.775 42.762-40.687 42.762-71.664z" fill="#ffe07d"/><path d="m432.966 5.269c-11.623 0-22.648 2.529-32.587 7.035 27.387 12.416 46.447 39.973 46.447 71.999 0 32.027-19.061 59.584-46.447 71.999 9.939 4.506 20.964 7.035 32.587 7.035 43.65 0 79.034-35.385 79.034-79.035 0-43.648-35.385-79.033-79.034-79.033z" fill="#ffd064"/><g><path d="m461.701 112.057c-1.524.001-3.064-.45-4.409-1.387l-28.742-20.026c-2.073-1.445-3.31-3.812-3.31-6.34v-39.47c0-4.267 3.459-7.726 7.726-7.726 4.268 0 7.726 3.459 7.726 7.726v35.436l25.433 17.72c3.502 2.44 4.362 7.256 1.923 10.757-1.502 2.156-3.906 3.31-6.347 3.31z" fill="#f4fbff"/></g></g></g></g></svg>